<svg width="50" height="33" viewBox="0 0 50 33" fill="none" xmlns="http://www.w3.org/2000/svg">
<path d="M45.4115 29.7192C45.5353 29.7131 45.7217 29.678 45.844 29.6551C46.0244 29.6215 46.1986 29.5665 46.3668 29.4932C46.8192 29.2931 47.3756 28.8121 47.5911 28.1477C47.6615 27.9339 47.6981 27.7094 47.7027 27.4849C47.7027 27.436 47.7027 27.3887 47.7027 27.3398V24.7817C47.7027 24.7283 47.7043 24.629 47.7027 24.5756C47.7027 24.5756 47.6767 24.5908 47.6599 24.6015C47.6278 24.6214 47.5942 24.6397 47.5606 24.6565C47.2732 24.8031 46.9706 24.9177 46.6587 25.0017C46.379 25.0795 46.0917 25.1299 45.8012 25.1529C45.63 25.1681 45.4573 25.1727 45.2846 25.1697C44.5417 25.1498 43.8355 24.9849 43.1783 24.6305C42.3804 24.1968 41.5565 23.3966 41.1346 22.4207C40.9802 22.0663 40.8748 21.6922 40.8182 21.3104C40.78 21.0401 40.7601 20.7667 40.7616 20.4933L40.7311 17.2678L36.1577 17.3075V25.1666H33.8145V11.0551C33.8145 10.8352 33.8252 10.6153 33.8496 10.3969C33.9444 9.57372 34.2394 8.82997 34.7545 8.17632C35.0556 7.78994 35.4148 7.45242 35.8184 7.17447C36.3289 6.82321 36.9097 6.58344 37.5212 6.47348C37.7657 6.42919 38.0118 6.40933 38.2594 6.39253C38.2976 6.38948 38.4337 6.39101 38.4719 6.39101L38.4811 8.70627C38.4031 8.70932 38.2762 8.72001 38.1998 8.72612C38.1356 8.73376 38.0714 8.74139 38.0088 8.75361C37.6358 8.82081 37.2873 8.98422 36.9984 9.2301C36.7217 9.46071 36.5001 9.73255 36.3518 10.0624C36.2448 10.2976 36.1822 10.5496 36.1669 10.8077C36.1623 10.8993 36.1608 10.9895 36.1608 11.0811L36.1745 15.2809H43.1079L43.111 20.6644C43.1263 21.1699 43.2975 21.6173 43.6231 22.0053C43.8875 22.3199 44.2054 22.5596 44.5952 22.7017C44.8016 22.778 45.0201 22.8223 45.2418 22.8315C45.4359 22.8391 45.6285 22.8361 45.8211 22.8025C46.1895 22.7399 46.5349 22.5841 46.8253 22.3504C46.9981 22.213 47.1525 22.0541 47.2824 21.8754C47.556 21.5059 47.6905 21.0874 47.7043 20.6308C47.7073 20.5498 47.7043 20.4704 47.7043 20.3895V15.3054L50.0001 15.2947V26.8679C49.9971 27.0451 49.9971 28.2928 49.9084 28.7388C49.7586 29.3069 49.4804 29.765 49.1182 30.2278C48.8308 30.5974 48.4899 30.9227 48.1078 31.1945C47.5178 31.613 46.862 31.868 46.1452 31.9688C45.974 31.9933 45.8028 32.0024 45.63 32.0162C45.5719 32.0207 45.4695 32.0162 45.4115 32.0162L45.4084 29.7192H45.4115Z" fill="#606060"/>
<path d="M24.654 15.8455C24.654 15.9738 24.6433 16.1021 24.6341 16.2304C24.5974 16.713 24.4812 17.1849 24.2932 17.6293C23.8698 18.6311 23.182 19.4054 22.2542 19.9705C21.6489 20.3386 20.9916 20.5646 20.29 20.6623C20.0989 20.6914 19.9048 20.7051 19.7122 20.7066H17.6074V10.9844H19.6297C20.2839 10.9859 20.9121 11.1142 21.5174 11.3555C22.0738 11.5754 22.5874 11.8931 23.0307 12.2947C23.7766 12.9667 24.281 13.7883 24.5225 14.7627C24.5882 15.0223 24.628 15.2881 24.6402 15.5553C24.6433 15.6531 24.6555 15.7493 24.654 15.8455Z" fill="#CE1010"/>
<path d="M16.1582 0C7.23303 0 0 7.20693 0 16.0969C0 24.9868 7.23456 32.1937 16.1582 32.1937C25.0817 32.1937 32.3163 24.9868 32.3163 16.0969C32.3163 7.20693 25.0817 0 16.1582 0ZM10.1877 25.1853H5.6189V10.7516C5.6189 8.41343 7.5204 6.51816 9.86823 6.51816H10.1877V25.1853ZM29.14 16.7505C29.1079 17.0605 29.0621 17.3675 29.0009 17.6729C28.9016 18.1616 28.7625 18.6412 28.5836 19.107C28.2244 20.0462 27.7139 20.9198 27.0734 21.6941C25.765 23.2763 23.9843 24.4003 21.991 24.9012C21.6884 24.9791 21.3827 25.0402 21.0739 25.0845C20.8874 25.112 20.701 25.1334 20.513 25.1532C20.3463 25.17 20.1797 25.1716 20.0147 25.1853C19.7074 25.2082 19.4002 25.2021 19.0945 25.2036H13.0766L13.095 10.3408C13.1301 9.95134 13.2203 9.56801 13.3655 9.203C13.5979 8.60891 13.9616 8.07439 14.4309 7.64066C14.8986 7.2054 15.4596 6.88011 16.071 6.6892C16.3477 6.60368 16.6335 6.54565 16.924 6.51816C17.0737 6.50441 17.2235 6.49678 17.3749 6.49678C18.1009 6.49372 18.8285 6.49219 19.5546 6.49678C19.8572 6.49678 20.1583 6.51205 20.4579 6.53801C22.5062 6.71517 24.4443 7.53834 25.9912 8.88839C26.783 9.57717 27.454 10.3942 27.9753 11.3044C28.4354 12.1062 28.7701 12.9737 28.9688 13.8748C29.0559 14.2627 29.1171 14.6552 29.1507 15.0492C29.1767 15.3699 29.1981 15.6921 29.1859 16.0129C29.1752 16.2587 29.1645 16.5061 29.14 16.7505Z" fill="#CE1010"/>
<path d="M29.1503 15.0553C29.1166 14.6613 29.0555 14.2688 28.9684 13.8809C28.7696 12.9798 28.4349 12.1124 27.9748 11.3106C27.4536 10.4003 26.7826 9.58329 25.9908 8.89451C24.4439 7.54445 22.5057 6.72128 20.4575 6.54413C20.1579 6.51816 19.8568 6.50442 19.5541 6.50289C18.8281 6.49831 18.1005 6.49984 17.3744 6.50289C17.2231 6.50289 17.0733 6.51053 16.9235 6.52427C16.6331 6.55176 16.3472 6.6098 16.0706 6.69532C15.4592 6.88622 14.8982 7.21152 14.4305 7.64678C13.9612 8.08051 13.5974 8.61503 13.3651 9.20912C13.2199 9.57412 13.1297 9.95745 13.0945 10.3469L13.0762 25.2098H19.094C19.3997 25.2098 19.707 25.2143 20.0142 25.1914C20.1793 25.1777 20.3459 25.1762 20.5125 25.1594C20.7005 25.1395 20.887 25.1181 21.0735 25.0906C21.3822 25.0463 21.6879 24.9853 21.9906 24.9074C23.9838 24.4064 25.7645 23.2824 27.073 21.7002C27.7134 20.9259 28.224 20.0524 28.5832 19.1131C28.762 18.6473 28.9011 18.1678 29.0005 17.6791C29.0616 17.3736 29.1075 17.0666 29.1396 16.7566C29.164 16.5123 29.1747 16.2649 29.1854 16.019C29.1976 15.6983 29.1762 15.376 29.1503 15.0553ZM24.635 16.2374C24.5983 16.72 24.4821 17.1919 24.2941 17.6363C23.8707 18.6381 23.1829 19.4124 22.255 19.9775C21.6497 20.3456 20.9925 20.5716 20.2909 20.6693C20.0998 20.6984 19.9057 20.7121 19.7131 20.7136H17.6083V10.9914H19.6305C20.2847 10.9929 20.913 11.1212 21.5183 11.3625C22.0747 11.5824 22.5882 11.9001 23.0315 12.3017C23.7774 12.9737 24.2819 13.7953 24.5234 14.7697C24.5891 15.0293 24.6288 15.2951 24.6411 15.5623C24.6441 15.6601 24.6564 15.7563 24.6548 15.8525C24.6548 15.9808 24.6441 16.1091 24.635 16.2374Z" fill="white"/>
<path d="M10.1879 6.51562V25.1828H5.61914V10.7491C5.61914 8.4109 7.52064 6.51562 9.86847 6.51562H10.1879Z" fill="white"/>
</svg>
